<?xml version="1.0" standalone="no"?>
<!DOCTYPE svg PUBLIC "-//W3C//DTD SVG 20010904//EN"
 "http://www.w3.org/TR/2001/REC-SVG-20010904/DTD/svg10.dtd">
<svg version="1.0" xmlns="http://www.w3.org/2000/svg"
 width="200.000000pt" height="200.000000pt" viewBox="0 0 200.000000 200.000000"
 preserveAspectRatio="xMidYMid meet">
<metadata>
Created by potrace 1.11, written by Peter Selinger 2001-2013
</metadata>
<g transform="translate(0.000000,200.000000) scale(0.100000,-0.100000)"
fill="#000000" stroke="none">
<path d="M60 1185 l0 -275 275 0 275 0 0 110 0 110 169 0 169 0 37 -72 c69
-135 128 -243 136 -248 4 -3 64 -4 133 -3 89 1 126 -2 127 -10 1 -7 1 -67 1
-134 l0 -123 269 0 c172 0 269 4 270 10 5 45 3 514 -2 522 -4 6 -110 10 -272
11 l-266 2 1 -70 c0 -128 12 -115 -101 -115 -67 0 -102 4 -109 13 -5 6 -44 78
-86 159 -43 82 -85 149 -94 152 -9 2 -99 4 -200 3 l-182 -2 0 118 0 117 -275
0 -275 0 0 -275z"/>
</g>
</svg>
