<?xml version="1.0" standalone="no"?>
<!DOCTYPE svg PUBLIC "-//W3C//DTD SVG 20010904//EN"
 "http://www.w3.org/TR/2001/REC-SVG-20010904/DTD/svg10.dtd">
<svg version="1.0" xmlns="http://www.w3.org/2000/svg"
 width="200.000000pt" height="200.000000pt" viewBox="0 0 200.000000 200.000000"
 preserveAspectRatio="xMidYMid meet">
<metadata>
Created by potrace 1.11, written by Peter Selinger 2001-2013
</metadata>
<g transform="translate(0.000000,200.000000) scale(0.100000,-0.100000)"
fill="#000000" stroke="none">
<path d="M68 1441 c-2 -9 -4 -131 -3 -271 l0 -254 270 0 270 0 1 94 c1 52 2
101 3 108 1 9 42 12 169 12 l168 0 33 -62 c103 -197 135 -254 142 -258 4 -3
64 -4 133 -3 89 1 126 -2 127 -10 1 -7 1 -67 1 -134 l0 -123 269 0 c208 0 269
3 270 13 5 55 3 511 -2 519 -4 6 -111 10 -272 11 l-266 2 1 -70 c0 -128 12
-115 -101 -115 -67 0 -102 4 -109 13 -5 6 -44 78 -86 159 -43 82 -85 149 -94
152 -9 2 -99 4 -199 3 -155 -2 -182 0 -185 13 -2 8 -3 60 -2 116 l1 101 -268
0 c-236 0 -268 -2 -271 -16z"/>
</g>
</svg>
